<?xml version="1.0" encoding="UTF-8" standalone="no" ?>
<!DOCTYPE svg PUBLIC "-//W3C//DTD SVG 1.1//EN" "http://www.w3.org/Graphics/SVG/1.1/DTD/svg11.dtd">
<svg xmlns="http://www.w3.org/2000/svg" xmlns:xlink="http://www.w3.org/1999/xlink" version="1.1" width="500" height="500" viewBox="0 0 500 500" xml:space="preserve">
<desc>Created with Fabric.js 4.6.0</desc>
<defs>
</defs>
<g transform="matrix(1.04 0 0 1.04 251.95 202.02)" id="NNV_JdV1i2fMBGvJJGZZq"  >
<linearGradient id="SVGID_1967" gradientUnits="userSpaceOnUse" gradientTransform="matrix(1 0 0 1 0 4.35)"  x1="11.34275718523628" y1="46.3661040082787" x2="107.0965866091756" y2="13.59813880648501">
<stop offset="0%" style="stop-color:#4CDDFF;stop-opacity: 1"/>
<stop offset="48.30653790578388%" style="stop-color:#D73C3C;stop-opacity: 0.4196078431372549"/>
<stop offset="100%" style="stop-color:#FF0000;stop-opacity: 1"/>
</linearGradient>
<path style="stroke: none; stroke-width: 1; stroke-dasharray: none; stroke-linecap: butt; stroke-dashoffset: 0; stroke-linejoin: miter; stroke-miterlimit: 4; fill: url(#SVGID_1967); fill-rule: nonzero; opacity: 1;" vector-effect="non-scaling-stroke"  transform=" translate(-40, -40)" d="M 60 4.346 C 71 4.346 80 13.973 80 25.738 C 80 58.45 40 74.762 40 75.65299999999999 L 40 75.65299999999999 C 40 74.763 0 58.54 0 25.738 C 0 13.884 9 4.346 20 4.346 C 31.1 4.346 40 10.835 40 22.689 C 40 10.835 48.9 4.346 60 4.346 z" stroke-linecap="round" />
</g>
<g transform="matrix(0.68 0 0 0.68 251.95 207.89)" id="rBxUM0TUxM6TCqKa9kMRf"  >
<path style="stroke: none; stroke-width: 1; stroke-dasharray: none; stroke-linecap: butt; stroke-dashoffset: 0; stroke-linejoin: miter; stroke-miterlimit: 4; fill: rgb(255,239,239); fill-rule: nonzero; opacity: 1;" vector-effect="non-scaling-stroke"  transform=" translate(-40, -40)" d="M 60 4.346 C 71 4.346 80 13.973 80 25.738 C 80 58.45 40 74.762 40 75.65299999999999 L 40 75.65299999999999 C 40 74.763 0 58.54 0 25.738 C 0 13.884 9 4.346 20 4.346 C 31.1 4.346 40 10.835 40 22.689 C 40 10.835 48.9 4.346 60 4.346 z" stroke-linecap="round" />
</g>
</svg>